<?xml version="1.0" encoding="UTF-8"?>
<!DOCTYPE svg PUBLIC "-//W3C//DTD SVG 1.1//EN" "http://www.w3.org/Graphics/SVG/1.1/DTD/svg11.dtd">
<svg xmlns="http://www.w3.org/2000/svg" version="1.1" width="500px" height="500px" style="shape-rendering:geometricPrecision; text-rendering:geometricPrecision; image-rendering:optimizeQuality; fill-rule:evenodd; clip-rule:evenodd" xmlns:xlink="http://www.w3.org/1999/xlink">
<g><path style="opacity:0.004" fill="#fefffe" d="M 187.5,9.5 C 188.833,10.1667 188.833,10.1667 187.5,9.5 Z"/></g>
<g><path style="opacity:0.004" fill="#fefffe" d="M 140.5,12.5 C 141.833,13.1667 141.833,13.1667 140.5,12.5 Z"/></g>
<g><path style="opacity:0.004" fill="#fefffe" d="M 375.5,19.5 C 376.833,20.1667 376.833,20.1667 375.5,19.5 Z"/></g>
<g><path style="opacity:0.004" fill="#fefffe" d="M 375.5,26.5 C 376.833,27.1667 376.833,27.1667 375.5,26.5 Z"/></g>
<g><path style="opacity:0.004" fill="#fefffe" d="M 276.5,49.5 C 277.833,50.1667 277.833,50.1667 276.5,49.5 Z"/></g>
<g><path style="opacity:0.004" fill="#fefffe" d="M 92.5,50.5 C 93.8333,51.1667 93.8333,51.1667 92.5,50.5 Z"/></g>
<g><path style="opacity:0.004" fill="#fefffe" d="M 137.5,52.5 C 138.833,53.1667 138.833,53.1667 137.5,52.5 Z"/></g>
<g><path style="opacity:0.004" fill="#fefffe" d="M 319.5,65.5 C 320.833,66.1667 320.833,66.1667 319.5,65.5 Z"/></g>
<g><path style="opacity:0.004" fill="#fefffe" d="M 89.5,77.5 C 90.8333,78.1667 90.8333,78.1667 89.5,77.5 Z"/></g>
<g><path style="opacity:0.004" fill="#fefffe" d="M -0.5,78.5 C 0.833333,79.1667 0.833333,79.1667 -0.5,78.5 Z"/></g>
<g><path style="opacity:0.004" fill="#fefffe" d="M 103.5,82.5 C 104.833,83.1667 104.833,83.1667 103.5,82.5 Z"/></g>
<g><path style="opacity:0.004" fill="#fefffe" d="M 59.5,94.5 C 60.8333,95.1667 60.8333,95.1667 59.5,94.5 Z"/></g>
<g><path style="opacity:0.004" fill="#fefffe" d="M 141.5,108.5 C 142.833,109.167 142.833,109.167 141.5,108.5 Z"/></g>
<g><path style="opacity:0.004" fill="#fefffe" d="M 3.5,110.5 C 4.83333,111.167 4.83333,111.167 3.5,110.5 Z"/></g>
<g><path style="opacity:0.004" fill="#fefffe" d="M 168.5,114.5 C 169.833,115.167 169.833,115.167 168.5,114.5 Z"/></g>
<g><path style="opacity:0.004" fill="#fefffe" d="M 456.5,123.5 C 457.833,124.167 457.833,124.167 456.5,123.5 Z"/></g>
<g><path style="opacity:0.004" fill="#fefffe" d="M 35.5,132.5 C 36.8333,133.167 36.8333,133.167 35.5,132.5 Z"/></g>
<g><path style="opacity:0.004" fill="#fefffe" d="M 261.5,141.5 C 262.833,142.167 262.833,142.167 261.5,141.5 Z"/></g>
<g><path style="opacity:0.004" fill="#fefffe" d="M 321.5,155.5 C 322.833,156.167 322.833,156.167 321.5,155.5 Z"/></g>
<g><path style="opacity:0.004" fill="#fefffe" d="M 376.5,155.5 C 377.833,156.167 377.833,156.167 376.5,155.5 Z"/></g>
<g><path style="opacity:0.004" fill="#fefffe" d="M 350.5,159.5 C 351.833,160.167 351.833,160.167 350.5,159.5 Z"/></g>
<g><path style="opacity:0.004" fill="#fefffe" d="M 99.5,165.5 C 100.833,166.167 100.833,166.167 99.5,165.5 Z"/></g>
<g><path style="opacity:0.004" fill="#fefffe" d="M 120.5,167.5 C 121.833,168.167 121.833,168.167 120.5,167.5 Z"/></g>
<g><path style="opacity:0.004" fill="#fefffe" d="M 26.5,177.5 C 27.8333,178.167 27.8333,178.167 26.5,177.5 Z"/></g>
<g><path style="opacity:0.004" fill="#fefffe" d="M 408.5,180.5 C 409.833,181.167 409.833,181.167 408.5,180.5 Z"/></g>
<g><path style="opacity:0.004" fill="#fefffe" d="M 185.5,187.5 C 186.833,188.167 186.833,188.167 185.5,187.5 Z"/></g>
<g><path style="opacity:0.994" fill="#d28290" d="M 66.5,200.5 C 58.6712,200.026 51.0045,200.692 43.5,202.5C 41.1175,204.046 38.4509,204.713 35.5,204.5C 39.1402,202.338 43.1402,200.838 47.5,200C 54.0137,199.18 60.3471,199.347 66.5,200.5 Z"/></g>
<g><path style="opacity:0.004" fill="#fefffe" d="M 21.5,201.5 C 22.8333,202.167 22.8333,202.167 21.5,201.5 Z"/></g>
<g><path style="opacity:1" fill="#d48190" d="M 67.5,200.5 C 75.3042,201.755 81.9709,205.089 87.5,210.5C 85.4004,210.523 83.5671,209.856 82,208.5C 81.5,208.833 81,209.167 80.5,209.5C 82.1713,211.51 82.838,213.843 82.5,216.5C 80.8212,216.715 79.8212,216.048 79.5,214.5C 78.3509,214.209 77.6842,213.376 77.5,212C 78.4181,209.914 79.0847,207.747 79.5,205.5C 75.1108,204.597 71.1108,202.931 67.5,200.5 Z M 79.5,212.5 C 82.1867,214.394 82.1867,215.061 79.5,214.5C 79.5,213.833 79.5,213.167 79.5,212.5 Z"/></g>
<g><path style="opacity:0.004" fill="#fefffe" d="M 138.5,209.5 C 139.833,210.167 139.833,210.167 138.5,209.5 Z"/></g>
<g><path style="opacity:0.004" fill="#fefffe" d="M 110.5,211.5 C 111.833,212.167 111.833,212.167 110.5,211.5 Z"/></g>
<g><path style="opacity:0.988" fill="#d25b70" d="M 66.5,200.5 C 66.8333,200.5 67.1667,200.5 67.5,200.5C 71.1108,202.931 75.1108,204.597 79.5,205.5C 79.0847,207.747 78.4181,209.914 77.5,212C 77.6842,213.376 78.3509,214.209 79.5,214.5C 79.8212,216.048 80.8212,216.715 82.5,216.5C 82.838,213.843 82.1713,211.51 80.5,209.5C 81,209.167 81.5,208.833 82,208.5C 83.5671,209.856 85.4004,210.523 87.5,210.5C 89.2303,211.026 90.5637,212.026 91.5,213.5C 92.0798,215.749 93.4131,217.415 95.5,218.5C 97.2624,219.262 98.2624,220.596 98.5,222.5C 98.5,223.5 98.5,224.5 98.5,225.5C 95.8333,225.5 93.1667,225.5 90.5,225.5C 91.1672,230.476 89.3338,231.809 85,229.5C 82.1226,229.437 81.2892,230.437 82.5,232.5C 84.9154,232.373 87.2487,232.207 89.5,232C 88.1068,233.171 87.2735,234.671 87,236.5C 83.9433,237.451 80.7766,237.784 77.5,237.5C 77.0204,241.244 76.3538,241.077 75.5,237C 75.7055,235.135 76.3722,233.468 77.5,232C 77.2409,230.739 76.5742,229.739 75.5,229C 77.9908,226.032 78.1574,222.865 76,219.5C 74.6275,222.964 72.1275,224.631 68.5,224.5C 66.3296,226.333 64.3296,228.333 62.5,230.5C 61.7611,230.631 61.0944,230.464 60.5,230C 59.7734,228.601 59.2734,227.101 59,225.5C 58.3292,224.748 57.4959,224.414 56.5,224.5C 55.791,223.596 54.791,223.263 53.5,223.5C 53.3573,225.262 53.6906,226.929 54.5,228.5C 51.9569,229.803 49.2903,230.803 46.5,231.5C 45.5905,229.625 44.2572,228.292 42.5,227.5C 41.8333,227.5 41.1667,227.5 40.5,227.5C 39.791,226.596 38.791,226.263 37.5,226.5C 38.0306,229.779 40.0306,231.113 43.5,230.5C 43.8432,232.483 43.1765,233.817 41.5,234.5C 35.6695,231.092 32.6695,232.925 32.5,240C 28.9085,240.789 25.4085,240.622 22,239.5C 22.0772,238.17 22.5772,236.836 23.5,235.5C 22.8848,233.884 21.8848,232.551 20.5,231.5C 17.6736,232.871 16.1736,231.871 16,228.5C 15.5065,230.134 15.3398,231.801 15.5,233.5C 14.8333,233.167 14.1667,232.833 13.5,232.5C 12.1938,231.533 11.5271,230.199 11.5,228.5C 11.6596,226.847 12.3263,225.514 13.5,224.5C 15.3588,224.539 16.6921,223.706 17.5,222C 18.9437,221.219 20.277,221.386 21.5,222.5C 22.3742,224.747 22.7076,227.08 22.5,229.5C 25.9496,230.244 27.6162,228.91 27.5,225.5C 28.3058,224.003 28.9724,222.336 29.5,220.5C 29.1667,220.167 28.8333,219.833 28.5,219.5C 27.6143,220.325 27.281,221.325 27.5,222.5C 26.1667,222.5 24.8333,222.5 23.5,222.5C 22.9387,220.092 22.4387,217.759 22,215.5C 22.414,215.043 22.914,214.709 23.5,214.5C 25.4544,217.047 27.1211,217.047 28.5,214.5C 28.9932,212.743 29.3265,210.909 29.5,209C 31.9266,207.409 34.5933,206.575 37.5,206.5C 37.5,207.833 37.5,209.167 37.5,210.5C 39.1667,210.5 40.8333,210.5 42.5,210.5C 42.7394,208.533 42.4061,206.699 41.5,205C 42.756,204.583 43.4226,203.75 43.5,202.5C 51.0045,200.692 58.6712,200.026 66.5,200.5 Z M 79.5,212.5 C 82.1867,214.394 82.1867,215.061 79.5,214.5C 79.5,213.833 79.5,213.167 79.5,212.5 Z M 69.5,209.5 C 70.7733,210.077 70.7733,210.743 69.5,211.5C 68.537,211.03 68.537,210.363 69.5,209.5 Z M 44.5,218.5 C 46.9327,219.548 46.9327,220.214 44.5,220.5C 43.7375,219.732 42.7375,219.232 41.5,219C 42.448,218.517 43.448,218.351 44.5,218.5 Z M 39.5,206.5 C 41.0847,207.002 41.5847,208.002 41,209.5C 39.9614,208.756 39.4614,207.756 39.5,206.5 Z M 68.5,223.5 C 67.5084,223.672 66.8417,223.338 66.5,222.5C 68.1703,222.249 69.6703,221.582 71,220.5C 71.1961,222.154 70.3628,223.154 68.5,223.5 Z M 87.5,220.5 C 89.2252,220.843 89.7252,221.843 89,223.5C 87.9614,222.756 87.4614,221.756 87.5,220.5 Z M 27.5,224.5 C 27.5,224.833 27.5,225.167 27.5,225.5C 26.5,226.167 25.5,226.833 24.5,227.5C 24.5,225.5 25.5,224.5 27.5,224.5 Z M 40.5,227.5 C 41.1667,227.5 41.8333,227.5 42.5,227.5C 43.8502,228.65 43.6836,229.317 42,229.5C 40.7753,229.138 39.6086,228.638 38.5,228C 39.0944,227.536 39.7611,227.369 40.5,227.5 Z M 56.5,224.5 C 56.9528,225.458 57.6195,226.292 58.5,227C 55.9789,227.329 55.3122,226.496 56.5,224.5 Z M 82.5,232.5 C 83.4293,233.315 84.4293,234.148 85.5,235C 84.451,235.492 83.451,235.326 82.5,234.5C 81.2267,233.743 81.2267,233.077 82.5,232.5 Z M 26.5,236.5 C 26.56,235.957 26.8933,235.624 27.5,235.5C 28.7946,236.098 30.1279,236.598 31.5,237C 29.735,237.64 28.0683,237.473 26.5,236.5 Z"/></g>
<g><path style="opacity:1" fill="#df9da4" d="M 51.5,206.5 C 52.5,206.5 53.5,206.5 54.5,206.5C 55.1667,207.833 55.8333,207.833 56.5,206.5C 57.0431,206.56 57.3764,206.893 57.5,207.5C 56.5,207.833 55.5,208.167 54.5,208.5C 52.9704,208.36 51.9704,207.693 51.5,206.5 Z"/></g>
<g><path style="opacity:0.933" fill="#e0acb3" d="M 91.5,213.5 C 93.5869,214.585 94.9202,216.251 95.5,218.5C 93.4131,217.415 92.0798,215.749 91.5,213.5 Z"/></g>
<g><path style="opacity:0.522" fill="#f5bcc2" d="M 44.5,218.5 C 43.448,218.351 42.448,218.517 41.5,219C 42.7375,219.232 43.7375,219.732 44.5,220.5C 43.1667,220.5 41.8333,220.5 40.5,220.5C 40.5,219.5 40.5,218.5 40.5,217.5C 42.099,217.232 43.4324,217.566 44.5,218.5 Z"/></g>
<g><path style="opacity:1" fill="#d16d7d" d="M 43.5,202.5 C 43.4226,203.75 42.756,204.583 41.5,205C 42.4061,206.699 42.7394,208.533 42.5,210.5C 40.8333,210.5 39.1667,210.5 37.5,210.5C 37.5,209.167 37.5,207.833 37.5,206.5C 34.5933,206.575 31.9266,207.409 29.5,209C 29.3265,210.909 28.9932,212.743 28.5,214.5C 27.1211,217.047 25.4544,217.047 23.5,214.5C 22.914,214.709 22.414,215.043 22,215.5C 22.4387,217.759 22.9387,220.092 23.5,222.5C 24.8333,222.5 26.1667,222.5 27.5,222.5C 27.281,221.325 27.6143,220.325 28.5,219.5C 28.8333,219.833 29.1667,220.167 29.5,220.5C 28.9724,222.336 28.3058,224.003 27.5,225.5C 27.6162,228.91 25.9496,230.244 22.5,229.5C 22.7076,227.08 22.3742,224.747 21.5,222.5C 20.277,221.386 18.9437,221.219 17.5,222C 16.6921,223.706 15.3588,224.539 13.5,224.5C 18.6097,215.39 25.943,208.724 35.5,204.5C 38.4509,204.713 41.1175,204.046 43.5,202.5 Z M 28.5,214.5 C 26.1081,215.368 25.9414,214.701 28,212.5C 28.4643,213.094 28.631,213.761 28.5,214.5 Z M 39.5,206.5 C 39.4614,207.756 39.9614,208.756 41,209.5C 41.5847,208.002 41.0847,207.002 39.5,206.5 Z M 27.5,224.5 C 27.5,224.833 27.5,225.167 27.5,225.5C 26.5,226.167 25.5,226.833 24.5,227.5C 24.5,225.5 25.5,224.5 27.5,224.5 Z"/></g>
<g><path style="opacity:0.18" fill="#ffcedb" d="M 66.5,222.5 C 66.8417,223.338 67.5084,223.672 68.5,223.5C 68.5,223.833 68.5,224.167 68.5,224.5C 67.325,224.719 66.325,224.386 65.5,223.5C 65.6236,222.893 65.9569,222.56 66.5,222.5 Z"/></g>
<g><path style="opacity:1" fill="#d4919c" d="M 311.5,233.5 C 311.664,230.813 311.497,228.146 311,225.5C 308.619,224.565 306.119,224.232 303.5,224.5C 303.101,228.011 302.434,231.344 301.5,234.5C 301.263,230.727 301.763,227.06 303,223.5C 312.037,221.376 314.871,224.709 311.5,233.5 Z"/></g>
<g><path style="opacity:1" fill="#d8969f" d="M 27.5,224.5 C 25.5,224.5 24.5,225.5 24.5,227.5C 24.1667,227.5 23.8333,227.5 23.5,227.5C 23.5,226.167 23.5,224.833 23.5,223.5C 25.099,223.232 26.4324,223.566 27.5,224.5 Z"/></g>
<g><path style="opacity:1" fill="#d78a97" d="M 436.5,224.5 C 444.759,222.733 452.093,224.733 458.5,230.5C 455.652,229.228 452.652,228.395 449.5,228C 449.833,227.667 450.167,227.333 450.5,227C 445.936,225.525 441.27,224.692 436.5,224.5 Z"/></g>
<g><path style="opacity:0.984" fill="#d2919e" d="M 152.5,235.5 C 152.5,235.167 152.5,234.833 152.5,234.5C 152.756,232.208 152.423,230.041 151.5,228C 147.848,227.501 144.182,227.335 140.5,227.5C 144.334,225.259 148.334,225.092 152.5,227C 155.145,229.95 155.145,232.783 152.5,235.5 Z"/></g>
<g><path style="opacity:1" fill="#d48290" d="M 244.5,224.5 C 259.554,222.204 269.554,228.37 274.5,243C 273.67,245.802 272.837,248.635 272,251.5C 271.303,253.584 270.136,255.251 268.5,256.5C 268.579,255.07 268.246,253.736 267.5,252.5C 268.325,251.614 269.325,251.281 270.5,251.5C 273.78,244.792 272.78,238.792 267.5,233.5C 260.981,227.667 253.314,224.667 244.5,224.5 Z"/></g>
<g><path style="opacity:1" fill="#d58c99" d="M 234.5,240.5 C 234.5,239.5 234.5,238.5 234.5,237.5C 235.73,231.515 233.396,228.848 227.5,229.5C 227.598,231.553 226.931,233.22 225.5,234.5C 225.39,227.619 228.39,225.786 234.5,229C 235.821,232.934 235.821,236.767 234.5,240.5 Z"/></g>
<g><path style="opacity:1" fill="#dd9ca7" d="M 330.5,241.5 C 330.665,237.818 330.499,234.152 330,230.5C 327.502,229.221 325.002,229.221 322.5,230.5C 323.148,228.414 324.648,227.414 327,227.5C 328.711,227.439 330.044,228.106 331,229.5C 331.812,233.689 331.645,237.689 330.5,241.5 Z"/></g>
<g><path style="opacity:1" fill="#da97a4" d="M 424.5,247.5 C 424.803,241.815 424.97,236.148 425,230.5C 422.502,229.221 420.002,229.221 417.5,230.5C 417.559,228.278 418.725,227.278 421,227.5C 423.873,227.598 425.873,228.932 427,231.5C 426.91,237.035 426.077,242.368 424.5,247.5 Z"/></g>
<g><path style="opacity:1" fill="#d18692" d="M 182.5,226.5 C 180.381,229.611 178.214,232.611 176,235.5C 175.329,236.252 174.496,236.586 173.5,236.5C 175.105,231.896 178.105,228.562 182.5,226.5 Z"/></g>
<g><path style="opacity:1" fill="#d38894" d="M 383.5,229.5 C 381.955,227.628 379.955,226.628 377.5,226.5C 373.527,229.464 369.527,232.464 365.5,235.5C 368.116,228.53 373.116,225.03 380.5,225C 382.141,226.129 383.141,227.629 383.5,229.5 Z"/></g>
<g><path style="opacity:1" fill="#d67f8d" d="M 56.5,224.5 C 57.4959,224.414 58.3292,224.748 59,225.5C 59.2734,227.101 59.7734,228.601 60.5,230C 61.0944,230.464 61.7611,230.631 62.5,230.5C 63.5,230.5 64.5,230.5 65.5,230.5C 66.1098,231.391 66.4431,232.391 66.5,233.5C 53.1762,228.161 43.8428,232.161 38.5,245.5C 38.7202,241.522 39.7202,237.855 41.5,234.5C 43.1765,233.817 43.8432,232.483 43.5,230.5C 40.0306,231.113 38.0306,229.779 37.5,226.5C 38.791,226.263 39.791,226.596 40.5,227.5C 39.7611,227.369 39.0944,227.536 38.5,228C 39.6086,228.638 40.7753,229.138 42,229.5C 43.6836,229.317 43.8502,228.65 42.5,227.5C 44.2572,228.292 45.5905,229.625 46.5,231.5C 49.2903,230.803 51.9569,229.803 54.5,228.5C 53.6906,226.929 53.3573,225.262 53.5,223.5C 54.791,223.263 55.791,223.596 56.5,224.5 Z M 40.5,227.5 C 41.1667,227.5 41.8333,227.5 42.5,227.5C 43.8502,228.65 43.6836,229.317 42,229.5C 40.7753,229.138 39.6086,228.638 38.5,228C 39.0944,227.536 39.7611,227.369 40.5,227.5 Z M 56.5,224.5 C 55.3122,226.496 55.9789,227.329 58.5,227C 57.6195,226.292 56.9528,225.458 56.5,224.5 Z"/></g>
<g><path style="opacity:1" fill="#d48c97" d="M 11.5,228.5 C 11.5271,230.199 12.1938,231.533 13.5,232.5C 14.1667,232.833 14.8333,233.167 15.5,233.5C 15.5,234.833 15.5,236.167 15.5,237.5C 14.1667,237.5 12.8333,237.5 11.5,237.5C 11.9227,235.219 11.256,233.552 9.5,232.5C 9.6596,230.847 10.3263,229.514 11.5,228.5 Z M 13.5,232.5 C 14.2916,233.967 14.2916,235.3 13.5,236.5C 12.218,235.042 12.218,233.708 13.5,232.5 Z"/></g>
<g><path style="opacity:1" fill="#d1687b" d="M 76.5,250.5 C 76.1667,250.5 75.8333,250.5 75.5,250.5C 75.7678,248.901 75.4345,247.568 74.5,246.5C 73.1,241.363 70.4334,237.029 66.5,233.5C 66.4431,232.391 66.1098,231.391 65.5,230.5C 67.1703,230.249 68.6703,229.582 70,228.5C 72.8455,230.469 73.6788,232.969 72.5,236C 74.3984,240.769 75.7317,245.602 76.5,250.5 Z"/></g>
<g><path style="opacity:0.671" fill="#ecbac2" d="M 132.5,232.5 C 132.573,234.027 131.906,235.027 130.5,235.5C 130.427,233.973 131.094,232.973 132.5,232.5 Z"/></g>
<g><path style="opacity:1" fill="#d25d71" d="M 140.5,227.5 C 144.182,227.335 147.848,227.501 151.5,228C 152.423,230.041 152.756,232.208 152.5,234.5C 148.646,234.172 144.979,234.838 141.5,236.5C 140.833,236.333 140.167,236.167 139.5,236C 140.696,235.346 140.696,234.846 139.5,234.5C 139.866,239.009 138.033,239.675 134,236.5C 135.344,241.158 135.844,245.824 135.5,250.5C 135.932,251.71 136.599,252.71 137.5,253.5C 137.5,254.167 137.5,254.833 137.5,255.5C 138.777,256.898 140.443,257.564 142.5,257.5C 146.798,256.703 151.132,256.37 155.5,256.5C 155.5,258.833 155.5,261.167 155.5,263.5C 148.306,264.565 140.973,264.565 133.5,263.5C 126.76,259.688 124.093,254.022 125.5,246.5C 127.074,244.898 127.741,242.898 127.5,240.5C 127.75,238.326 128.75,236.659 130.5,235.5C 131.906,235.027 132.573,234.027 132.5,232.5C 134.629,230.05 137.296,228.383 140.5,227.5 Z"/></g>
<g><path style="opacity:0.747" fill="#df98a4" d="M 280.5,231.5 C 280.613,236.518 280.947,241.518 281.5,246.5C 280.778,246.082 280.278,245.416 280,244.5C 279.186,239.98 279.353,235.646 280.5,231.5 Z"/></g>
<g><path style="opacity:1" fill="#d4596d" d="M 82.5,232.5 C 81.2892,230.437 82.1226,229.437 85,229.5C 89.3338,231.809 91.1672,230.476 90.5,225.5C 93.1667,225.5 95.8333,225.5 98.5,225.5C 97.656,227.759 95.9893,228.759 93.5,228.5C 93.472,230.582 94.1387,232.416 95.5,234C 98.2241,234.27 100.891,234.77 103.5,235.5C 104.752,241.857 104.752,248.19 103.5,254.5C 102.19,252.565 100.857,250.565 99.5,248.5C 96.9615,253.168 95.2948,258.168 94.5,263.5C 93.1779,263.67 92.0113,263.337 91,262.5C 91.1859,258.516 91.1859,254.516 91,250.5C 89.4443,248.365 87.6109,248.032 85.5,249.5C 83.8297,249.751 82.3297,250.418 81,251.5C 79.6439,250.62 78.1439,250.286 76.5,250.5C 75.7317,245.602 74.3984,240.769 72.5,236C 73.6788,232.969 72.8455,230.469 70,228.5C 68.6703,229.582 67.1703,230.249 65.5,230.5C 64.5,230.5 63.5,230.5 62.5,230.5C 64.3296,228.333 66.3296,226.333 68.5,224.5C 72.1275,224.631 74.6275,222.964 76,219.5C 78.1574,222.865 77.9908,226.032 75.5,229C 76.5742,229.739 77.2409,230.739 77.5,232C 76.3722,233.468 75.7055,235.135 75.5,237C 76.3538,241.077 77.0204,241.244 77.5,237.5C 80.7766,237.784 83.9433,237.451 87,236.5C 87.2735,234.671 88.1068,233.171 89.5,232C 87.2487,232.207 84.9154,232.373 82.5,232.5 Z M 82.5,232.5 C 81.2267,233.077 81.2267,233.743 82.5,234.5C 83.451,235.326 84.451,235.492 85.5,235C 84.4293,234.148 83.4293,233.315 82.5,232.5 Z"/></g>
<g><path style="opacity:1" fill="#d77c8b" d="M 152.5,234.5 C 152.5,234.833 152.5,235.167 152.5,235.5C 142.812,235.85 137.146,240.85 135.5,250.5C 135.844,245.824 135.344,241.158 134,236.5C 138.033,239.675 139.866,239.009 139.5,234.5C 140.696,234.846 140.696,235.346 139.5,236C 140.167,236.167 140.833,236.333 141.5,236.5C 144.979,234.838 148.646,234.172 152.5,234.5 Z"/></g>
<g><path style="opacity:0.757" fill="#ddaab3" d="M 215.5,237.5 C 213.097,237.448 210.764,237.781 208.5,238.5C 209.312,237.007 210.645,236.34 212.5,236.5C 213.726,236.52 214.726,236.853 215.5,237.5 Z"/></g>
<g><path style="opacity:1" fill="#d48a94" d="M 365.5,235.5 C 366.084,238.285 365.084,239.952 362.5,240.5C 362.75,238.326 363.75,236.659 365.5,235.5 Z"/></g>
<g><path style="opacity:1" fill="#d2596e" d="M 244.5,224.5 C 253.314,224.667 260.981,227.667 267.5,233.5C 272.78,238.792 273.78,244.792 270.5,251.5C 269.325,251.281 268.325,251.614 267.5,252.5C 268.246,253.736 268.579,255.07 268.5,256.5C 266.143,256.337 263.81,256.503 261.5,257C 262.308,257.308 262.975,257.808 263.5,258.5C 262.311,259.429 260.978,259.762 259.5,259.5C 259.5,260.5 259.5,261.5 259.5,262.5C 254.57,263.873 249.57,264.873 244.5,265.5C 243.922,251.862 243.922,238.196 244.5,224.5 Z M 255.5,235.5 C 263.689,239.364 265.022,244.698 259.5,251.5C 257.417,252.588 255.251,253.588 253,254.5C 252.503,252.19 252.337,249.857 252.5,247.5C 252.5,245.5 252.5,243.5 252.5,241.5C 252.94,239.156 253.94,237.156 255.5,235.5 Z"/></g>
<g><path style="opacity:1" fill="#cf7988" d="M 255.5,235.5 C 255.5,235.167 255.5,234.833 255.5,234.5C 257.722,234.178 259.556,234.845 261,236.5C 261.333,236.167 261.667,235.833 262,235.5C 265.066,240.379 265.233,245.379 262.5,250.5C 261.675,251.386 260.675,251.719 259.5,251.5C 265.022,244.698 263.689,239.364 255.5,235.5 Z"/></g>
<g><path style="opacity:0.231" fill="#ffd4e1" d="M 255.5,234.5 C 255.5,234.833 255.5,235.167 255.5,235.5C 253.94,237.156 252.94,239.156 252.5,241.5C 252.5,239.167 252.5,236.833 252.5,234.5C 253.5,234.5 254.5,234.5 255.5,234.5 Z"/></g>
<g><path style="opacity:0.999" fill="#d35b70" d="M 436.5,224.5 C 441.27,224.692 445.936,225.525 450.5,227C 450.167,227.333 449.833,227.667 449.5,228C 452.652,228.395 455.652,229.228 458.5,230.5C 460.226,234.135 461.559,237.968 462.5,242C 463.321,247.138 461.821,247.971 458,244.5C 456.336,241.342 455.169,238.009 454.5,234.5C 450.867,233.588 447.2,232.921 443.5,232.5C 442.268,239.309 442.268,245.976 443.5,252.5C 443.369,253.376 443.702,254.043 444.5,254.5C 446.075,253.544 447.742,252.877 449.5,252.5C 451.062,252.267 452.395,251.6 453.5,250.5C 454.815,249.524 456.148,248.524 457.5,247.5C 458.736,248.246 460.07,248.579 461.5,248.5C 460.36,251.025 459.693,253.692 459.5,256.5C 458.5,256.5 457.5,256.5 456.5,256.5C 456.5,257.5 456.5,258.5 456.5,259.5C 456.027,260.906 455.027,261.573 453.5,261.5C 447.347,263.092 441.014,264.092 434.5,264.5C 434.5,255.833 434.5,247.167 434.5,238.5C 434.334,234.154 434.501,229.821 435,225.5C 435.383,224.944 435.883,224.611 436.5,224.5 Z"/></g>
<g><path style="opacity:1" fill="#d48d9a" d="M 9.5,232.5 C 8.17333,241.109 7.50666,249.776 7.5,258.5C 4.71901,249.63 5.38568,240.963 9.5,232.5 Z"/></g>
<g><path style="opacity:1" fill="#d35a6e" d="M 41.5,234.5 C 39.7202,237.855 38.7202,241.522 38.5,245.5C 38.7471,248.939 38.4137,252.272 37.5,255.5C 36.735,256.66 35.735,257.66 34.5,258.5C 32.4971,256.05 30.4971,253.717 28.5,251.5C 27.8826,251.611 27.3826,251.944 27,252.5C 26.6667,257.167 26.3333,261.833 26,266.5C 24.9887,267.337 23.8221,267.67 22.5,267.5C 22.6663,260.825 22.4996,254.158 22,247.5C 20,244.833 18,244.833 16,247.5C 14.7475,250.014 14.2475,252.68 14.5,255.5C 14.8174,259.172 13.1507,260.838 9.5,260.5C 8.83333,260.167 8.16667,259.833 7.5,259.5C 7.5,259.167 7.5,258.833 7.5,258.5C 7.50666,249.776 8.17333,241.109 9.5,232.5C 11.256,233.552 11.9227,235.219 11.5,237.5C 12.8333,237.5 14.1667,237.5 15.5,237.5C 15.5,236.167 15.5,234.833 15.5,233.5C 15.3398,231.801 15.5065,230.134 16,228.5C 16.1736,231.871 17.6736,232.871 20.5,231.5C 21.8848,232.551 22.8848,233.884 23.5,235.5C 22.5772,236.836 22.0772,238.17 22,239.5C 25.4085,240.622 28.9085,240.789 32.5,240C 32.6695,232.925 35.6695,231.092 41.5,234.5 Z M 26.5,236.5 C 28.0683,237.473 29.735,237.64 31.5,237C 30.1279,236.598 28.7946,236.098 27.5,235.5C 26.8933,235.624 26.56,235.957 26.5,236.5 Z M 13.5,232.5 C 12.218,233.708 12.218,235.042 13.5,236.5C 14.2916,235.3 14.2916,233.967 13.5,232.5 Z"/></g>
<g><path style="opacity:1" fill="#d98795" d="M 311.5,235.5 C 311.333,242.2 310,248.533 307.5,254.5C 307.5,253.5 307.5,252.5 307.5,251.5C 307.708,245.763 309.042,240.43 311.5,235.5 Z"/></g>
<g><path style="opacity:1" fill="#d17080" d="M 458.5,230.5 C 460.9,232.296 462.567,234.63 463.5,237.5C 463.497,242.527 463.164,247.527 462.5,252.5C 462.267,254.062 461.6,255.395 460.5,256.5C 460.167,256.5 459.833,256.5 459.5,256.5C 459.693,253.692 460.36,251.025 461.5,248.5C 460.07,248.579 458.736,248.246 457.5,247.5C 456.148,248.524 454.815,249.524 453.5,250.5C 453.5,249.833 453.5,249.167 453.5,248.5C 455.698,240.683 452.698,236.35 444.5,235.5C 444.786,241.259 444.452,246.925 443.5,252.5C 442.268,245.976 442.268,239.309 443.5,232.5C 447.2,232.921 450.867,233.588 454.5,234.5C 455.169,238.009 456.336,241.342 458,244.5C 461.821,247.971 463.321,247.138 462.5,242C 461.559,237.968 460.226,234.135 458.5,230.5 Z"/></g>
<g><path style="opacity:1" fill="#cf7282" d="M 98.5,222.5 C 106.213,232.151 108.546,242.818 105.5,254.5C 104.833,254.5 104.167,254.5 103.5,254.5C 104.752,248.19 104.752,241.857 103.5,235.5C 100.891,234.77 98.2241,234.27 95.5,234C 94.1387,232.416 93.472,230.582 93.5,228.5C 95.9893,228.759 97.656,227.759 98.5,225.5C 98.5,224.5 98.5,223.5 98.5,222.5 Z M 96.5,229.5 C 98.8586,230.389 99.0253,231.722 97,233.5C 96.51,232.207 96.3433,230.873 96.5,229.5 Z"/></g>
<g><path style="opacity:1" fill="#d68f9b" d="M 234.5,237.5 C 234.5,238.5 234.5,239.5 234.5,240.5C 233.708,249.784 232.042,258.784 229.5,267.5C 229.527,256.93 231.193,246.93 234.5,237.5 Z"/></g>
<g><path style="opacity:0.604" fill="#e3a1af" d="M 127.5,240.5 C 127.741,242.898 127.074,244.898 125.5,246.5C 125.259,244.102 125.926,242.102 127.5,240.5 Z"/></g>
<g><path style="opacity:1" fill="#d3596f" d="M 182.5,226.5 C 189.868,226.371 192.201,229.871 189.5,237C 190.448,237.483 191.448,237.649 192.5,237.5C 192.5,248.5 192.5,259.5 192.5,270.5C 190.5,270.5 188.5,270.5 186.5,270.5C 185.833,268.833 185.167,267.167 184.5,265.5C 184.5,264.5 184.5,263.5 184.5,262.5C 184.5,261.5 184.5,260.5 184.5,259.5C 180.802,259.448 177.135,259.114 173.5,258.5C 173.5,261.167 173.5,263.833 173.5,266.5C 171.468,267.048 170.468,268.381 170.5,270.5C 168.833,270.5 167.167,270.5 165.5,270.5C 166.032,264.848 166.365,259.181 166.5,253.5C 168.113,253.056 169.28,252.056 170,250.5C 171.473,245.895 172.639,241.228 173.5,236.5C 174.496,236.586 175.329,236.252 176,235.5C 178.214,232.611 180.381,229.611 182.5,226.5 Z M 181.5,242.5 C 182.222,242.082 182.722,241.416 183,240.5C 183.498,243.817 183.665,247.15 183.5,250.5C 181.571,250.769 179.905,250.269 178.5,249C 179.412,246.749 180.412,244.583 181.5,242.5 Z"/></g>
<g><path style="opacity:1" fill="#d3596f" d="M 215.5,237.5 C 216.906,237.973 217.573,238.973 217.5,240.5C 217.511,242.547 217.844,244.547 218.5,246.5C 217.402,249.881 216.402,253.215 215.5,256.5C 214.5,256.5 213.5,256.5 212.5,256.5C 211.445,262.171 210.279,267.838 209,273.5C 208.092,275.439 206.592,276.439 204.5,276.5C 202.72,272.404 202.054,268.071 202.5,263.5C 202.5,263.167 202.5,262.833 202.5,262.5C 203.75,262.423 204.583,261.756 205,260.5C 206.549,254.591 207.382,248.591 207.5,242.5C 207.232,240.901 207.566,239.568 208.5,238.5C 210.764,237.781 213.097,237.448 215.5,237.5 Z"/></g>
<g><path style="opacity:1" fill="#d68c98" d="M 181.5,242.5 C 181.238,241.022 181.571,239.689 182.5,238.5C 183.086,238.709 183.586,239.043 184,239.5C 184.499,243.486 184.666,247.486 184.5,251.5C 182.167,251.5 179.833,251.5 177.5,251.5C 177.338,249.473 177.505,247.473 178,245.5C 178.422,243.574 179.589,242.574 181.5,242.5 Z M 181.5,242.5 C 180.412,244.583 179.412,246.749 178.5,249C 179.905,250.269 181.571,250.769 183.5,250.5C 183.665,247.15 183.498,243.817 183,240.5C 182.722,241.416 182.222,242.082 181.5,242.5 Z"/></g>
<g><path style="opacity:0.004" fill="#fefffe" d="M 427.5,246.5 C 428.833,247.167 428.833,247.167 427.5,246.5 Z"/></g>
<g><path style="opacity:1" fill="#d3596e" d="M 311.5,233.5 C 311.5,234.167 311.5,234.833 311.5,235.5C 309.042,240.43 307.708,245.763 307.5,251.5C 306.218,253.423 304.885,255.423 303.5,257.5C 301.022,256.278 300.022,254.278 300.5,251.5C 304.812,251.385 305.146,251.051 301.5,250.5C 296.471,251.717 291.471,251.717 286.5,250.5C 283.331,247.836 282.165,244.503 283,240.5C 283.615,242.116 284.615,243.449 286,244.5C 286.5,244 287,243.5 287.5,243C 285.877,239.951 284.377,236.784 283,233.5C 283.119,227.171 284.453,227.171 287,233.5C 287.333,232.5 287.667,231.5 288,230.5C 286.721,235.4 287.387,240.067 290,244.5C 290.383,243.944 290.883,243.611 291.5,243.5C 292.833,243.5 294.167,243.5 295.5,243.5C 299.888,242.109 301.888,239.109 301.5,234.5C 302.434,231.344 303.101,228.011 303.5,224.5C 306.119,224.232 308.619,224.565 311,225.5C 311.497,228.146 311.664,230.813 311.5,233.5 Z"/></g>
<g><path style="opacity:0.965" fill="#dea0ab" d="M 301.5,234.5 C 301.888,239.109 299.888,242.109 295.5,243.5C 298.39,240.971 300.39,237.971 301.5,234.5 Z"/></g>
<g><path style="opacity:1" fill="#d27081" d="M 330.5,241.5 C 330.756,245.269 330.423,248.936 329.5,252.5C 328.566,253.568 328.232,254.901 328.5,256.5C 330.415,256.784 332.081,256.451 333.5,255.5C 333.833,255.5 334.167,255.5 334.5,255.5C 338.833,255.5 343.167,255.5 347.5,255.5C 347.167,258.167 346.833,260.833 346.5,263.5C 339.103,265.019 331.603,266.686 324,268.5C 322.018,268.01 320.351,267.01 319,265.5C 318.935,255.14 319.602,244.807 321,234.5C 321.21,232.942 321.71,231.609 322.5,230.5C 325.002,229.221 327.502,229.221 330,230.5C 330.499,234.152 330.665,237.818 330.5,241.5 Z"/></g>
<g><path style="opacity:1" fill="#d5586d" d="M 325.5,230.5 C 328.488,230.155 329.821,231.488 329.5,234.5C 328.89,238.486 328.39,242.486 328,246.5C 327.333,247.167 326.667,247.833 326,248.5C 325.814,250.9 325.314,253.234 324.5,255.5C 321.584,246.831 321.917,238.497 325.5,230.5 Z"/></g>
<g><path style="opacity:1" fill="#d06e7f" d="M 173.5,236.5 C 172.639,241.228 171.473,245.895 170,250.5C 169.28,252.056 168.113,253.056 166.5,253.5C 166.953,249.307 168.119,245.307 170,241.5C 170.697,239.416 171.864,237.749 173.5,236.5 Z"/></g>
<g><path style="opacity:1" fill="#d2596e" d="M 234.5,237.5 C 231.193,246.93 229.527,256.93 229.5,267.5C 227.824,268.183 227.157,269.517 227.5,271.5C 225.473,271.662 223.473,271.495 221.5,271C 220.869,268.901 219.869,267.068 218.5,265.5C 218.511,263.453 218.844,261.453 219.5,259.5C 219.278,257.945 218.611,256.611 217.5,255.5C 218.333,253.833 219.167,252.167 220,250.5C 221.085,251.293 222.252,251.96 223.5,252.5C 224.898,246.92 225.564,241.254 225.5,235.5C 225.5,235.167 225.5,234.833 225.5,234.5C 226.931,233.22 227.598,231.553 227.5,229.5C 233.396,228.848 235.73,231.515 234.5,237.5 Z"/></g>
<g><path style="opacity:0.996" fill="#d797a3" d="M 463.5,237.5 C 466.205,242.662 465.872,247.662 462.5,252.5C 463.164,247.527 463.497,242.527 463.5,237.5 Z"/></g>
<g><path style="opacity:1" fill="#d37382" d="M 225.5,235.5 C 225.564,241.254 224.898,246.92 223.5,252.5C 222.252,251.96 221.085,251.293 220,250.5C 219.167,252.167 218.333,253.833 217.5,255.5C 218.611,256.611 219.278,257.945 219.5,259.5C 218.844,261.453 218.511,263.453 218.5,265.5C 218.167,265.5 217.833,265.5 217.5,265.5C 216.347,263.193 215.18,260.86 214,258.5C 213.045,264.276 211.712,269.943 210,275.5C 208.322,277.553 206.489,277.887 204.5,276.5C 206.592,276.439 208.092,275.439 209,273.5C 210.279,267.838 211.445,262.171 212.5,256.5C 213.5,256.5 214.5,256.5 215.5,256.5C 216.402,253.215 217.402,249.881 218.5,246.5C 217.844,244.547 217.511,242.547 217.5,240.5C 219.592,243.088 220.925,246.088 221.5,249.5C 221.56,250.043 221.893,250.376 222.5,250.5C 223.429,249.311 223.762,247.978 223.5,246.5C 223.646,242.613 224.313,238.946 225.5,235.5 Z"/></g>
<g><path style="opacity:0.486" fill="#f2c8cc" d="M 223.5,246.5 C 223.762,247.978 223.429,249.311 222.5,250.5C 221.893,250.376 221.56,250.043 221.5,249.5C 222.167,248.5 222.833,247.5 223.5,246.5 Z"/></g>
<g><path style="opacity:0.757" fill="#dda6b3" d="M 453.5,248.5 C 453.5,249.167 453.5,249.833 453.5,250.5C 452.395,251.6 451.062,252.267 449.5,252.5C 450.5,250.833 451.833,249.5 453.5,248.5 Z"/></g>
<g><path style="opacity:0.98" fill="#d18292" d="M 244.5,224.5 C 243.922,238.196 243.922,251.862 244.5,265.5C 243.833,265.5 243.167,265.5 242.5,265.5C 241.73,253.565 241.897,241.565 243,229.5C 243.198,227.618 243.698,225.952 244.5,224.5 Z"/></g>
<g><path style="opacity:1" fill="#d37d8b" d="M 416.5,236.5 C 416.313,241.845 415.98,247.178 415.5,252.5C 414.167,252.5 412.833,252.5 411.5,252.5C 410.046,248.345 409.046,244.012 408.5,239.5C 409.967,242.521 411.633,245.521 413.5,248.5C 414.511,244.373 415.511,240.373 416.5,236.5 Z"/></g>
<g><path style="opacity:0.906" fill="#d88e9c" d="M 287.5,252.5 C 290.85,252.335 294.183,252.502 297.5,253C 298.84,255.149 298.173,256.316 295.5,256.5C 296.815,253.45 295.815,252.783 292.5,254.5C 290.664,253.972 288.997,253.306 287.5,252.5 Z"/></g>
<g><path style="opacity:0.98" fill="#d995a3" d="M 252.5,247.5 C 252.337,249.857 252.503,252.19 253,254.5C 255.251,253.588 257.417,252.588 259.5,251.5C 257.685,254.407 255.019,255.741 251.5,255.5C 251.194,252.615 251.527,249.948 252.5,247.5 Z"/></g>
<g><path style="opacity:0.788" fill="#dfc0c6" d="M 137.5,253.5 C 138.71,253.932 139.71,254.599 140.5,255.5C 139.5,255.5 138.5,255.5 137.5,255.5C 137.5,254.833 137.5,254.167 137.5,253.5 Z"/></g>
<g><path style="opacity:0.835" fill="#d69ba8" d="M 347.5,255.5 C 343.167,255.5 338.833,255.5 334.5,255.5C 337.36,254.756 340.36,254.089 343.5,253.5C 345.026,253.994 346.359,254.661 347.5,255.5 Z"/></g>
<g><path style="opacity:1" fill="#d06375" d="M 291.5,243.5 C 290.883,243.611 290.383,243.944 290,244.5C 287.387,240.067 286.721,235.4 288,230.5C 287.667,231.5 287.333,232.5 287,233.5C 284.453,227.171 283.119,227.171 283,233.5C 284.377,236.784 285.877,239.951 287.5,243C 287,243.5 286.5,244 286,244.5C 284.615,243.449 283.615,242.116 283,240.5C 282.165,244.503 283.331,247.836 286.5,250.5C 291.471,251.717 296.471,251.717 301.5,250.5C 305.146,251.051 304.812,251.385 300.5,251.5C 300.022,254.278 301.022,256.278 303.5,257.5C 304.885,255.423 306.218,253.423 307.5,251.5C 307.5,252.5 307.5,253.5 307.5,254.5C 307.5,254.833 307.5,255.167 307.5,255.5C 305.952,255.821 305.285,256.821 305.5,258.5C 303.856,258.714 302.356,258.38 301,257.5C 300.544,258.744 301.044,259.577 302.5,260C 301.552,260.483 300.552,260.649 299.5,260.5C 299.5,262.5 299.5,264.5 299.5,266.5C 291.73,269.597 289.063,267.264 291.5,259.5C 292.795,258.512 294.128,257.512 295.5,256.5C 298.173,256.316 298.84,255.149 297.5,253C 294.183,252.502 290.85,252.335 287.5,252.5C 284.5,251.5 282.5,249.5 281.5,246.5C 280.947,241.518 280.613,236.518 280.5,231.5C 280.285,226.91 282.285,223.91 286.5,222.5C 289.97,222.972 291.637,224.972 291.5,228.5C 290.913,231.683 290.246,234.849 289.5,238C 289.758,240.009 290.425,241.843 291.5,243.5 Z"/></g>
<g><path style="opacity:0.671" fill="#ea9fac" d="M 329.5,252.5 C 329.5,253.5 329.5,254.5 329.5,255.5C 330.833,255.5 332.167,255.5 333.5,255.5C 332.081,256.451 330.415,256.784 328.5,256.5C 328.232,254.901 328.566,253.568 329.5,252.5 Z"/></g>
<g><path style="opacity:1" fill="#d07e8d" d="M 155.5,263.5 C 155.5,261.167 155.5,258.833 155.5,256.5C 151.132,256.37 146.798,256.703 142.5,257.5C 140.443,257.564 138.777,256.898 137.5,255.5C 138.5,255.5 139.5,255.5 140.5,255.5C 145.512,255.08 150.512,254.913 155.5,255C 158.034,258.024 158.034,260.858 155.5,263.5 Z"/></g>
<g><path style="opacity:1" fill="#d15a70" d="M 383.5,229.5 C 384.434,230.568 384.768,231.901 384.5,233.5C 384.5,245.833 384.5,258.167 384.5,270.5C 382.167,270.5 379.833,270.5 377.5,270.5C 377.101,266.989 376.434,263.656 375.5,260.5C 374.306,259.223 372.64,258.556 370.5,258.5C 368.833,258.667 367.167,258.833 365.5,259C 364.731,263.215 363.731,267.382 362.5,271.5C 358.077,272.575 356.077,270.908 356.5,266.5C 357.691,257.608 359.691,248.942 362.5,240.5C 365.084,239.952 366.084,238.285 365.5,235.5C 369.527,232.464 373.527,229.464 377.5,226.5C 379.955,226.628 381.955,227.628 383.5,229.5 Z M 373.5,241.5 C 374.167,242.167 374.833,242.833 375.5,243.5C 375.5,245.833 375.5,248.167 375.5,250.5C 374.167,250.5 372.833,250.5 371.5,250.5C 370.438,248.901 370.438,247.234 371.5,245.5C 372.6,244.395 373.267,243.062 373.5,241.5 Z"/></g>
<g><path style="opacity:0.863" fill="#e9b5bd" d="M 371.5,245.5 C 370.438,247.234 370.438,248.901 371.5,250.5C 370.351,250.209 369.684,249.376 369.5,248C 369.684,246.624 370.351,245.791 371.5,245.5 Z"/></g>
<g><path style="opacity:0.055" fill="#ffe7e9" d="M 375.5,243.5 C 374.833,242.833 374.167,242.167 373.5,241.5C 373.783,240.711 374.283,240.044 375,239.5C 375.49,240.793 375.657,242.127 375.5,243.5 Z"/></g>
<g><path style="opacity:0.967" fill="#d68b98" d="M 384.5,233.5 C 385.731,245.659 386.231,257.993 386,270.5C 382.171,274.663 378.837,274.329 376,269.5C 375.502,266.518 375.335,263.518 375.5,260.5C 376.434,263.656 377.101,266.989 377.5,270.5C 379.833,270.5 382.167,270.5 384.5,270.5C 384.5,258.167 384.5,245.833 384.5,233.5 Z"/></g>
<g><path style="opacity:1" fill="#cf7987" d="M 207.5,242.5 C 207.382,248.591 206.549,254.591 205,260.5C 204.583,261.756 203.75,262.423 202.5,262.5C 203.565,255.573 205.232,248.906 207.5,242.5 Z"/></g>
<g><path style="opacity:1" fill="#d999a6" d="M 459.5,256.5 C 459.833,256.5 460.167,256.5 460.5,256.5C 459.738,258.262 458.404,259.262 456.5,259.5C 456.5,258.5 456.5,257.5 456.5,256.5C 457.5,256.5 458.5,256.5 459.5,256.5 Z"/></g>
<g><path style="opacity:1" fill="#e1b8a8" d="M 74.5,246.5 C 75.4345,247.568 75.7678,248.901 75.5,250.5C 75.2627,251.791 75.596,252.791 76.5,253.5C 77.2389,253.369 77.9056,253.536 78.5,254C 77.5415,255.707 76.8748,257.541 76.5,259.5C 75.8999,261.468 74.5666,262.468 72.5,262.5C 73.2122,260.072 74.2122,257.739 75.5,255.5C 74.5934,252.579 74.2601,249.579 74.5,246.5 Z"/></g>
<g><path style="opacity:0.949" fill="#cf929f" d="M 347.5,255.5 C 349.818,258.299 349.485,260.966 346.5,263.5C 346.833,260.833 347.167,258.167 347.5,255.5 Z"/></g>
<g><path style="opacity:0.745" fill="#d8919c" d="M 184.5,262.5 C 181.844,260.594 178.844,260.094 175.5,261C 174.891,262.948 174.224,264.782 173.5,266.5C 173.5,263.833 173.5,261.167 173.5,258.5C 177.135,259.114 180.802,259.448 184.5,259.5C 184.5,260.5 184.5,261.5 184.5,262.5 Z"/></g>
<g><path style="opacity:1" fill="#d4586e" d="M 335.5,256.5 C 338.833,256.5 342.167,256.5 345.5,256.5C 345.5,258.5 345.5,260.5 345.5,262.5C 338.737,262.486 332.237,263.819 326,266.5C 324.175,266.057 322.342,265.723 320.5,265.5C 320.5,262.833 320.5,260.167 320.5,257.5C 324.188,257.55 327.855,257.884 331.5,258.5C 333.333,258.415 334.666,257.748 335.5,256.5 Z"/></g>
<g><path style="opacity:1" fill="#d38593" d="M 408.5,239.5 C 405.904,238.735 403.237,238.401 400.5,238.5C 399.523,244.459 398.69,250.459 398,256.5C 397.667,255.833 397.333,255.167 397,254.5C 395.378,259.324 394.212,264.324 393.5,269.5C 393.186,274.42 395.52,276.42 400.5,275.5C 398.201,278.002 395.701,278.002 393,275.5C 391.463,271.911 391.463,268.244 393,264.5C 394.855,255.748 397.021,247.081 399.5,238.5C 401.867,236.605 404.534,236.105 407.5,237C 408.252,237.671 408.586,238.504 408.5,239.5 Z"/></g>
<g><path style="opacity:1" fill="#d67a8a" d="M 307.5,255.5 C 306.054,260.061 303.387,263.728 299.5,266.5C 299.5,264.5 299.5,262.5 299.5,260.5C 300.552,260.649 301.552,260.483 302.5,260C 301.044,259.577 300.544,258.744 301,257.5C 302.356,258.38 303.856,258.714 305.5,258.5C 305.285,256.821 305.952,255.821 307.5,255.5 Z"/></g>
<g><path style="opacity:1" fill="#d78895" d="M 268.5,256.5 C 262.729,262.637 255.562,266.303 247,267.5C 245.124,267.475 243.624,266.809 242.5,265.5C 243.167,265.5 243.833,265.5 244.5,265.5C 249.57,264.873 254.57,263.873 259.5,262.5C 259.5,261.5 259.5,260.5 259.5,259.5C 260.978,259.762 262.311,259.429 263.5,258.5C 262.975,257.808 262.308,257.308 261.5,257C 263.81,256.503 266.143,256.337 268.5,256.5 Z"/></g>
<g><path style="opacity:0.973" fill="#e5c4b2" d="M 7.5,259.5 C 8.16667,259.833 8.83333,260.167 9.5,260.5C 10.7576,263.694 11.4242,267.027 11.5,270.5C 9.41552,267.199 8.08219,263.532 7.5,259.5 Z"/></g>
<g><path style="opacity:1" fill="#e3ac8c" d="M 28.5,251.5 C 30.4971,253.717 32.4971,256.05 34.5,258.5C 35.735,257.66 36.735,256.66 37.5,255.5C 38.4807,259.464 40.4807,262.797 43.5,265.5C 43.33,266.822 43.6634,267.989 44.5,269C 50.1648,271.944 56.1648,272.944 62.5,272C 64.4828,270.111 66.8162,268.778 69.5,268C 71.16,266.512 72.16,264.679 72.5,262.5C 74.5666,262.468 75.8999,261.468 76.5,259.5C 76.8748,257.541 77.5415,255.707 78.5,254C 77.9056,253.536 77.2389,253.369 76.5,253.5C 77.209,252.596 78.209,252.263 79.5,252.5C 79.5,256.167 79.5,259.833 79.5,263.5C 80.5,263.5 81.5,263.5 82.5,263.5C 83.6853,258.866 84.6853,254.199 85.5,249.5C 87.6109,248.032 89.4443,248.365 91,250.5C 91.1859,254.516 91.1859,258.516 91,262.5C 92.0113,263.337 93.1779,263.67 94.5,263.5C 95.2948,258.168 96.9615,253.168 99.5,248.5C 100.857,250.565 102.19,252.565 103.5,254.5C 104.167,254.5 104.833,254.5 105.5,254.5C 104.439,272.317 96.1052,285.317 80.5,293.5C 74.8312,294.935 69.1645,296.435 63.5,298C 54.6564,298.738 45.9897,298.238 37.5,296.5C 34.1272,293.952 30.7939,291.119 27.5,288C 25.8455,287.392 24.1789,286.892 22.5,286.5C 17.2793,282.272 13.6126,276.938 11.5,270.5C 11.4242,267.027 10.7576,263.694 9.5,260.5C 13.1507,260.838 14.8174,259.172 14.5,255.5C 15.4691,253.337 16.3024,251.004 17,248.5C 17.8928,247.289 18.7261,247.289 19.5,248.5C 21.0166,255.733 21.8499,263.066 22,270.5C 25.0623,272.13 26.729,271.13 27,267.5C 27.2648,262.118 27.7648,256.785 28.5,251.5 Z"/></g>
<g><path style="opacity:1" fill="#cf6169" d="M 85.5,249.5 C 84.6853,254.199 83.6853,258.866 82.5,263.5C 81.5,263.5 80.5,263.5 79.5,263.5C 79.5,259.833 79.5,256.167 79.5,252.5C 78.209,252.263 77.209,252.596 76.5,253.5C 75.596,252.791 75.2627,251.791 75.5,250.5C 75.8333,250.5 76.1667,250.5 76.5,250.5C 78.1439,250.286 79.6439,250.62 81,251.5C 82.3297,250.418 83.8297,249.751 85.5,249.5 Z"/></g>
<g><path style="opacity:0.989" fill="#d38391" d="M 155.5,263.5 C 151.652,265.308 147.485,266.308 143,266.5C 139.39,266.573 136.223,265.573 133.5,263.5C 140.973,264.565 148.306,264.565 155.5,263.5 Z"/></g>
<g><path style="opacity:1" fill="#d67e8f" d="M 434.5,238.5 C 434.5,247.167 434.5,255.833 434.5,264.5C 441.014,264.092 447.347,263.092 453.5,261.5C 450.912,263.625 447.912,264.958 444.5,265.5C 441.167,265.5 437.833,265.5 434.5,265.5C 433.167,256.5 433.167,247.5 434.5,238.5 Z"/></g>
<g><path style="opacity:0.996" fill="#d996a3" d="M 434.5,265.5 C 437.833,265.5 441.167,265.5 444.5,265.5C 442.799,266.734 440.799,267.401 438.5,267.5C 436.645,267.66 435.312,266.993 434.5,265.5 Z"/></g>
<g><path style="opacity:0.859" fill="#d8a4ad" d="M 184.5,265.5 C 185.167,267.167 185.833,268.833 186.5,270.5C 188.607,271.468 190.941,271.802 193.5,271.5C 191.08,273.924 188.413,274.091 185.5,272C 184.577,269.959 184.244,267.792 184.5,265.5 Z"/></g>
<g><path style="opacity:1" fill="#d27d8b" d="M 193.5,271.5 C 190.941,271.802 188.607,271.468 186.5,270.5C 188.5,270.5 190.5,270.5 192.5,270.5C 192.5,259.5 192.5,248.5 192.5,237.5C 191.448,237.649 190.448,237.483 189.5,237C 192.201,229.871 189.868,226.371 182.5,226.5C 188.009,223.333 191.509,225 193,231.5C 194.699,244.968 194.865,258.302 193.5,271.5 Z"/></g>
<g><path style="opacity:1" fill="#d35b70" d="M 424.5,247.5 C 424.702,249.95 424.369,252.283 423.5,254.5C 422.85,254.804 422.183,255.137 421.5,255.5C 420.715,260.638 419.715,265.638 418.5,270.5C 416.5,270.5 414.5,270.5 412.5,270.5C 412.912,268.027 411.912,266.694 409.5,266.5C 409.115,262.675 408.115,259.009 406.5,255.5C 404.783,256.668 404.116,258.335 404.5,260.5C 403.883,260.611 403.383,260.944 403,261.5C 402.503,264.146 402.336,266.813 402.5,269.5C 402.946,272.01 402.28,274.01 400.5,275.5C 395.52,276.42 393.186,274.42 393.5,269.5C 394.212,264.324 395.378,259.324 397,254.5C 397.333,255.167 397.667,255.833 398,256.5C 398.69,250.459 399.523,244.459 400.5,238.5C 403.237,238.401 405.904,238.735 408.5,239.5C 409.046,244.012 410.046,248.345 411.5,252.5C 412.833,252.5 414.167,252.5 415.5,252.5C 415.98,247.178 416.313,241.845 416.5,236.5C 416.205,234.265 416.539,232.265 417.5,230.5C 420.002,229.221 422.502,229.221 425,230.5C 424.97,236.148 424.803,241.815 424.5,247.5 Z"/></g>
<g><path style="opacity:0.984" fill="#d893a0" d="M 404.5,260.5 C 404.324,263.727 403.657,266.727 402.5,269.5C 402.336,266.813 402.503,264.146 403,261.5C 403.383,260.944 403.883,260.611 404.5,260.5 Z"/></g>
<g><path style="opacity:1" fill="#df8999" d="M 409.5,266.5 C 408.065,264.402 406.898,262.069 406,259.5C 405.617,260.056 405.117,260.389 404.5,260.5C 404.116,258.335 404.783,256.668 406.5,255.5C 408.115,259.009 409.115,262.675 409.5,266.5 Z"/></g>
<g><path style="opacity:1" fill="#cc646b" d="M 28.5,251.5 C 27.7648,256.785 27.2648,262.118 27,267.5C 26.729,271.13 25.0623,272.13 22,270.5C 21.8499,263.066 21.0166,255.733 19.5,248.5C 18.7261,247.289 17.8928,247.289 17,248.5C 16.3024,251.004 15.4691,253.337 14.5,255.5C 14.2475,252.68 14.7475,250.014 16,247.5C 18,244.833 20,244.833 22,247.5C 22.4996,254.158 22.6663,260.825 22.5,267.5C 23.8221,267.67 24.9887,267.337 26,266.5C 26.3333,261.833 26.6667,257.167 27,252.5C 27.3826,251.944 27.8826,251.611 28.5,251.5 Z"/></g>
<g><path style="opacity:0.98" fill="#d795a2" d="M 291.5,259.5 C 289.063,267.264 291.73,269.597 299.5,266.5C 294.489,271.163 290.823,270.33 288.5,264C 288.522,261.817 289.522,260.317 291.5,259.5 Z"/></g>
<g><path style="opacity:0.941" fill="#d5a0a8" d="M 421.5,265.5 C 421.405,267.786 420.738,269.786 419.5,271.5C 419.054,268.99 419.72,266.99 421.5,265.5 Z"/></g>
<g><path style="opacity:0.996" fill="#d68c9a" d="M 202.5,263.5 C 202.054,268.071 202.72,272.404 204.5,276.5C 201.714,276.044 200.381,274.377 200.5,271.5C 200.804,268.614 201.471,265.948 202.5,263.5 Z"/></g>
<g><path style="opacity:1" fill="#cd7181" d="M 166.5,253.5 C 166.365,259.181 166.032,264.848 165.5,270.5C 167.167,270.5 168.833,270.5 170.5,270.5C 170.468,268.381 171.468,267.048 173.5,266.5C 173.946,269.01 173.28,271.01 171.5,272.5C 169.097,272.552 166.764,272.219 164.5,271.5C 163.052,265.316 163.719,259.316 166.5,253.5 Z"/></g>
<g><path style="opacity:0.922" fill="#db9ca9" d="M 217.5,265.5 C 217.833,265.5 218.167,265.5 218.5,265.5C 219.869,267.068 220.869,268.901 221.5,271C 223.473,271.495 225.473,271.662 227.5,271.5C 227.157,269.517 227.824,268.183 229.5,267.5C 228.341,273.566 225.174,274.9 220,271.5C 218.878,269.593 218.045,267.593 217.5,265.5 Z"/></g>
<g><path style="opacity:1" fill="#d27d8d" d="M 423.5,254.5 C 423.089,258.221 422.422,261.888 421.5,265.5C 419.72,266.99 419.054,268.99 419.5,271.5C 413.936,274.719 410.603,273.052 409.5,266.5C 411.912,266.694 412.912,268.027 412.5,270.5C 414.5,270.5 416.5,270.5 418.5,270.5C 419.715,265.638 420.715,260.638 421.5,255.5C 422.183,255.137 422.85,254.804 423.5,254.5 Z"/></g>
<g><path style="opacity:1" fill="#e0b89e" d="M 72.5,262.5 C 72.16,264.679 71.16,266.512 69.5,268C 66.8162,268.778 64.4828,270.111 62.5,272C 56.1648,272.944 50.1648,271.944 44.5,269C 43.6634,267.989 43.33,266.822 43.5,265.5C 53.9269,272.484 63.5936,271.484 72.5,262.5 Z"/></g>
<g><path style="opacity:1" fill="#d48895" d="M 362.5,240.5 C 359.691,248.942 357.691,257.608 356.5,266.5C 356.077,270.908 358.077,272.575 362.5,271.5C 363.731,267.382 364.731,263.215 365.5,259C 367.167,258.833 368.833,258.667 370.5,258.5C 372.64,258.556 374.306,259.223 375.5,260.5C 372.5,260.5 369.5,260.5 366.5,260.5C 366.196,264.855 365.196,269.021 363.5,273C 360.001,274.12 357.167,273.287 355,270.5C 355.034,259.815 357.534,249.815 362.5,240.5 Z"/></g>
<g><path style="opacity:0.737" fill="#e4a6b3" d="M 164.5,271.5 C 166.764,272.219 169.097,272.552 171.5,272.5C 170.726,273.147 169.726,273.48 168.5,273.5C 166.645,273.66 165.312,272.993 164.5,271.5 Z"/></g>
<g><path style="opacity:0.004" fill="#fefffe" d="M 304.5,272.5 C 305.833,273.167 305.833,273.167 304.5,272.5 Z"/></g>
<g><path style="opacity:0.004" fill="#fefffe" d="M 318.5,275.5 C 319.833,276.167 319.833,276.167 318.5,275.5 Z"/></g>
<g><path style="opacity:0.004" fill="#fefffe" d="M 480.5,283.5 C 481.833,284.167 481.833,284.167 480.5,283.5 Z"/></g>
<g><path style="opacity:1" fill="#e1c1ac" d="M 22.5,286.5 C 24.1789,286.892 25.8455,287.392 27.5,288C 30.7939,291.119 34.1272,293.952 37.5,296.5C 31.6312,294.404 26.6312,291.071 22.5,286.5 Z"/></g>
<g><path style="opacity:0.004" fill="#fefffe" d="M 497.5,289.5 C 498.833,290.167 498.833,290.167 497.5,289.5 Z"/></g>
<g><path style="opacity:0.004" fill="#fefffe" d="M 452.5,294.5 C 453.833,295.167 453.833,295.167 452.5,294.5 Z"/></g>
<g><path style="opacity:0.004" fill="#fefffe" d="M 221.5,295.5 C 222.833,296.167 222.833,296.167 221.5,295.5 Z"/></g>
<g><path style="opacity:0.961" fill="#e5c0ac" d="M 80.5,293.5 C 79.9423,294.79 78.9423,295.623 77.5,296C 64.0878,301.694 50.7544,301.861 37.5,296.5C 45.9897,298.238 54.6564,298.738 63.5,298C 69.1645,296.435 74.8312,294.935 80.5,293.5 Z"/></g>
<g><path style="opacity:0.004" fill="#fefffe" d="M 279.5,296.5 C 280.833,297.167 280.833,297.167 279.5,296.5 Z"/></g>
<g><path style="opacity:0.004" fill="#fefffe" d="M 203.5,299.5 C 204.833,300.167 204.833,300.167 203.5,299.5 Z"/></g>
<g><path style="opacity:0.004" fill="#fefffe" d="M 234.5,301.5 C 235.833,302.167 235.833,302.167 234.5,301.5 Z"/></g>
<g><path style="opacity:0.004" fill="#fefffe" d="M 80.5,304.5 C 81.8333,305.167 81.8333,305.167 80.5,304.5 Z"/></g>
<g><path style="opacity:0.004" fill="#fefffe" d="M 368.5,307.5 C 369.833,308.167 369.833,308.167 368.5,307.5 Z"/></g>
<g><path style="opacity:0.004" fill="#fefffe" d="M 135.5,362.5 C 136.833,363.167 136.833,363.167 135.5,362.5 Z"/></g>
<g><path style="opacity:0.004" fill="#fefffe" d="M 402.5,364.5 C 403.833,365.167 403.833,365.167 402.5,364.5 Z"/></g>
<g><path style="opacity:0.004" fill="#fefffe" d="M 398.5,371.5 C 399.833,372.167 399.833,372.167 398.5,371.5 Z"/></g>
<g><path style="opacity:0.004" fill="#fefffe" d="M 239.5,379.5 C 240.833,380.167 240.833,380.167 239.5,379.5 Z"/></g>
<g><path style="opacity:0.004" fill="#fefffe" d="M 100.5,383.5 C 101.833,384.167 101.833,384.167 100.5,383.5 Z"/></g>
<g><path style="opacity:0.004" fill="#fefffe" d="M 126.5,399.5 C 127.833,400.167 127.833,400.167 126.5,399.5 Z"/></g>
<g><path style="opacity:0.004" fill="#fefffe" d="M 170.5,406.5 C 171.833,407.167 171.833,407.167 170.5,406.5 Z"/></g>
<g><path style="opacity:0.004" fill="#fefffe" d="M 201.5,419.5 C 202.833,420.167 202.833,420.167 201.5,419.5 Z"/></g>
<g><path style="opacity:0.004" fill="#fefffe" d="M 221.5,423.5 C 222.833,424.167 222.833,424.167 221.5,423.5 Z"/></g>
<g><path style="opacity:0.004" fill="#fefffe" d="M 209.5,437.5 C 210.833,438.167 210.833,438.167 209.5,437.5 Z"/></g>
<g><path style="opacity:0.004" fill="#fefffe" d="M 97.5,453.5 C 98.8333,454.167 98.8333,454.167 97.5,453.5 Z"/></g>
<g><path style="opacity:0.004" fill="#fefffe" d="M 137.5,465.5 C 138.833,466.167 138.833,466.167 137.5,465.5 Z"/></g>
<g><path style="opacity:0.004" fill="#fefffe" d="M 397.5,467.5 C 398.833,468.167 398.833,468.167 397.5,467.5 Z"/></g>
<g><path style="opacity:0.004" fill="#fefffe" d="M 365.5,472.5 C 366.833,473.167 366.833,473.167 365.5,472.5 Z"/></g>
<g><path style="opacity:0.004" fill="#fefffe" d="M 197.5,481.5 C 198.833,482.167 198.833,482.167 197.5,481.5 Z"/></g>
<g><path style="opacity:0.004" fill="#fefffe" d="M 271.5,491.5 C 272.833,492.167 272.833,492.167 271.5,491.5 Z"/></g>
<g><path style="opacity:0.004" fill="#fefffe" d="M 357.5,492.5 C 358.833,493.167 358.833,493.167 357.5,492.5 Z"/></g>
<g><path style="opacity:0.004" fill="#fefffe" d="M 135.5,495.5 C 136.833,496.167 136.833,496.167 135.5,495.5 Z"/></g>
<g><path style="opacity:0.004" fill="#fefffe" d="M 67.5,497.5 C 68.8333,498.167 68.8333,498.167 67.5,497.5 Z"/></g>
</svg>
